<mxfile host="app.diagrams.net" modified="2020-11-01T10:25:24.992Z" agent="5.0 (Windows)" etag="zb_e6lSZCg5rUXOo7-42" version="13.8.8" type="github">
  <diagram id="MnezL5NAF8C2aSRuctBU" name="Page-1">
    <mxGraphModel dx="782" dy="404" grid="1" gridSize="10" guides="1" tooltips="1" connect="1" arrows="1" fold="1" page="1" pageScale="1" pageWidth="850" pageHeight="1100" math="0" shadow="0">
      <root>
        <mxCell id="0" />
        <mxCell id="1" parent="0" />
        <mxCell id="rTl1wURlh0UvGtvhXfdE-1" value="" style="pointerEvents=1;shadow=0;dashed=0;html=1;strokeColor=none;fillColor=#505050;labelPosition=center;verticalLabelPosition=bottom;verticalAlign=top;outlineConnect=0;align=center;shape=mxgraph.office.devices.tv;" parent="1" vertex="1">
          <mxGeometry x="120" y="30" width="130" height="70" as="geometry" />
        </mxCell>
        <object label="HDMI OUT" id="rTl1wURlh0UvGtvhXfdE-5">
          <mxCell style="edgeStyle=orthogonalEdgeStyle;rounded=0;orthogonalLoop=1;jettySize=auto;html=1;exitX=0.5;exitY=0;exitDx=0;exitDy=0;fontStyle=1" parent="1" source="rTl1wURlh0UvGtvhXfdE-3" target="rTl1wURlh0UvGtvhXfdE-1" edge="1">
            <mxGeometry relative="1" as="geometry" />
          </mxCell>
        </object>
        <mxCell id="rTl1wURlh0UvGtvhXfdE-3" value="" style="shape=image;verticalLabelPosition=bottom;labelBackgroundColor=#ffffff;verticalAlign=top;aspect=fixed;imageAspect=0;image=data:image/png,iVBORw0KGgoAAAANSUhEUgAAAJoAAACYCAIAAACTVWdLAAAAAXNSR0IArs4c6QAAAARnQU1BAACxjwv8YQUAAAAJcEhZcwAAFiUAABYlAUlSJPAAAFy4SURBVHhe7Z0HfFRV9vjTJ23SCy2E3pt0RCki0sSKDfuqq2vX1V3Lura1u4pd17U37GKjSJMOAtKLgNRAei+TSft/zzkvw4CAoIDs//M7Sd7cd++5555+z32ZTALr6uoC/g/+f4H/SXP680yrrpYOuuqCAgMDg4K4OmP7B9Bra5lXGxjAHANnCNjj5n8K/jfMuReTYjyBAGyH9ZzeeqipqSkpLS+vqPRUequqqmtqa+kELzQk2OUKi4xwuaMiQ0NDDNkHkKupqQ0IDBCf2NOc/0PWPdbN6c8e8QQEBe8Rf4XFpVu27dq4JWPthi1bt2dlZObk5heVllVUeCorMWc1xsWcdUwKUXNGhLuiIiMS4t2NGySnN05t26pp25ZN09MaJCXEOhTrTYsV/X3lf8Kox6g5/bmijSExhnMfELArK3fZ6o0Ll6xZsnL9hp93mP2qq6sxt4NxcICFQoKDoyLDE+JjWqY36tGlbe/uHbp1bNUsraGDERCAP4hd/Wx5LNv1mDOn8YPK1IoWIkH00F62auPU2Yu/n/fj6p+25OQWEHs++0nkhYXFREfGxkTHxUYnxsfEuKOiSaxhoQxBpKq62uutLiuvKC4pzysoLiwuKSouKy4pIyHjB0aFfTQsLCQxPrZdq6Yn9u168oCePbu0c7lCGWIhGNC84Gjs2DTqMWROf0Oy4RE31r9u47YJk2Z9M3X+qnWbS8rKBauuDrTIiPAGKQmtmzdp1zqdnNm+VXrD1MTkxDh3dOSv6ppozs0rzMzJX79pG/TXbdj608/bd2bmlpZXkAmYzvzIyPC2LdKGDe5z5sgB3Tu3sYnV1TWW7Y9Nox4T5tynIdn3Jk1f8M4nk2fNX55fVMIuBhaKTE1O6Nax9Ql9Ovft0bFD62aJfnueD6AjgcuLv3BWxQbssSP6oKi4dP2m7Yt+XDN7wfIlK37CtAQ0iQE67qiIPt07XHzOsNFD++MrIGPU4OBjMVL/YHP61EFDspkasrzC8/7nU//77lcr1m6ykoQhrHhC786nDj1+QL9uaY1SdLaAnDe0dhVDKVj/rwIrmsVpY2BL6QY5eQVzFq38esq8mfN/3LEzhx6j2qZF2uXnj7z03BHstdyyrR5r6fePNKdPC9iDJv7OweLdT6a88MZnK9f+zJ5HpLL1kejOP30IhmzaJNUmgu+kRAHrc2Dv+/3DLwUXLkjjQYEYyXqycvInTl/w4YRp8xevplQOCQ6Bw5bNGl998WlXXHhqTHSUzKitg3OfLDbxj4I/xpw+4WkQf1a1orgHn37rh2Vrw0JDOV5EhIcPG9T7igtHnXRCD9OvGlGfFfhp7XBp0F8PNLEStLGT9cxbvOqN8d9+OWkO5yLOrByB2rdOv+PGi8aeOZTRYyf3/gHm9MlM8CE3WW7Dz9vveey/EybPRSd0hoWFjj6l/81XndOzazvDx+Sa1Rw1HWl9+XTCKy7kS8UcbV94/fMPv5xWUlpO2mB3H9z/uAf/flWvbu2YAqZtFrT/KIsebXM6otax8VSHhMijmRde/+xfz7xVUFjCLWeGkUP6/e26sZQ5DNkTAP9d7WiqyV8zuhvUWY225qfNT7w4/uOvpktXXR1noZuuOvfOGy50ucKonsCByT/Moix81ECTpVyrqqppbNy8Y/Qlfw9uPDCm9bDQJgN7DP3T5xNnKWIddiWDgekD6z/64CwPSJKoMc6B6XOWDDrrhtAmg2JbDwtuNPCE065dsmI9/cJ3TQ2N+klHFY5SdNoqOCwScgU+/XrmTfc8w4meXYfEddNV5xCUHCU1IqXU1HkCIDutPw58WoIZMxJ5Fbu99ObnDz/zTlFJGf2E6cN3/fmaS84ADSn+mPqIJY80qJuKCsy1qSPu+NdLYWmD4toMD2k8sN+oqxcsWa2IgmCoOuNou/bBgDHG4YgolNe6uvUbt4688HYEiW87IrjxgMtvfriwqIR+Xxwb2tGBI25OnzAmXl5B0fAL/hrU8MT4NiNcTQffeu9zZeUe+jkAGCZX35RjE3wccoVtazzy7DvRLYeSeLFrz2FX/rw1g/4qP6G4HgU4suZEDAMTe/X6zcedfDlWdLc8JaXj6A++mGpIeLq+OvjSecyDj1XdK2WznDp7ccs+50Y2GxLV/ORmvcZ89/0PdHq9R9WiR9CcPgEQiSsZtVG3MxA1PP2kzoMvXbZqA534LwUPDdHNURH4MIKPZ64m49YdmYPOdOqjmFanTJg8m86jadEjZc7dcmpczl64PLXT6NjWw6lgh557S3ZuAZ3+CZbr/yj4RMA1aZSVV1x47QNsogntRka3GPrxVzPoPGoWPSLm9LHu2HLB8qQOo2LbDOdMcv4191Z4Kum0rRTEIy3hUQBEMCF89dEt/3w2uJFYNLLZyR99yQn1KFn08JtTRBOOHW+dv3hVSsdT1ZYDrrjlETtL1m+WAjrpfx58srCV8k3jnkdf5TyKRdlfvtDz9FGw6GE2pwolvFrwLV+9sWGX08mxCHblrY/SQ9Vg0h45kf5AMKF8Txvuffw1X9adMnMRPUd6fzn85uRqBsvOze8w4GIkYb+86LoHxJB+tjxC8vzhYHL5LPr3B18k63LCbtT1jJ82baOnShPyERL/cD4VEnL1v+3yVFaecdldc35YiXwnndDjizceDgkJZqXgoGPld0lHCHzSmcmQ+spbH3vzo4kR4a7maQ2nfPjv1OQE+u2Z0WFXwu6n278THFvimPKLhaC7Hv7PtNlLQoKDOrZt8e4L94SGhoCgthTk/19tCZhoCBskEFhTU/vCo7ecMrAXaWndxi3X3vEUQ+RETA2mNA8vCPXDAeqMzrP1dz6eZA+9GnQ5ff3GrfTU17ECgr0nWKeN+oB85bT2BB/+MQ7KpBZ9tXU5eYUdB1zMSTSo0YCHxr3N6BHaRA+PgwihQDyxJjg4ePX6zYPOuqG6ptbjqfzo1QdGD+1vvzbCb8HzxeVe65pUjIpL/yJ2GeUKguHQ5vpLtF/2/OEAw7glKXfxinWnnHsrPZWV3glvPXrygJ7EK2mMnsPI9mFItqZi03ilt+r6O58qL/eUlJbfecNFPlsKx/WWUKM4bWYBtPGDEIRWTK/XW1xSUlBYWFZWThs0TVxBPhzAZ3WjIPALT2f0jwV4UNGCUELPLu2euv/60rIKmL/h7nF5BcVIALsY8zCyetii03zw4Wfevufx11xhoSf07vzte0/a3wig+j1XYVHRO4LZfUWFZ/36dctXrNy0cWNGxs7CooJKTyVlcBgQGhoeHh4TGxMXGxcTE5OqkJyclJraICEhPjo62ij4gxmVBqo0k/vDL3uOKMAJK3JFnNCQkD/d/Mh7n32H+JefP+qVJ24/7AH6e80p7Mp72sSWy1ZtIM1CEyPMmfBCm5Zpkn6xpYMrAD5ghqyqqvph0Q9Tp01bunTp9h07SM6QciLP3koiuPKW5Tp2UucSQIASoRgS6zZs2LBBg4ZN09OapqU1adIYSyckJPi8xOAA1t3r9ggBq7MQhQCL5ReWnDD6L7uy8z2V3s9ef2jUyf2wKPIYjjPhd8BhiM5a+UssXuuGj71t7qKVVD3jHrzxusvPMteDS+PV1Gq6zsrK+uabbydOmrR27dqy0rLwiPBwV3hIKIWwbLGBcCVKgCgS4i5cVVj5EW4hVFsjtZKcZCErfzsWFBEZGeOOTklJwbKtWrVq3bp1s2bpDVJTCW7hsh6YxBVyStEB//aRAFOyJbCvv5s35sp/hIaGNk9rMOfLF6OiIljbEtjvZ+N3mdOfy7c+msgBi9zYt0eHyR8+Rb+lWRr+hty2bdvHn3yKLXdmZIRoIgWtvoSV4DPAD9go2S4ZxVrOlwGv9W+pNdB7+bNAKOBDfEOLoxERnJKSnJ7eFNO2bdOGK8HsH7v7NC2w1+3vBzMVV9PVpTf+a/yE6XjkPbde9s9bL/P5vYP9O+D3Rif8wUZRcVnfUVfvysqjZ+pHT/fu3oGwISVCHM2aBnfsyHj//fcnTpqSmbmLYAwNdSElo2IJYaE2KDAYi5jYiGqMYUUrf/AMNS3OwQghK0UECIhg/YDkaG6gqF1Qq64mo1dj5tCQUDbgRo0aYtSOHTt26tSxWXq6y+XSeQJHOmqFZyn+5X2B23Zk9Tv1mtLyinBX2LyvX26Z3gg9qHy/d7nfbk6baO5GBXTvE6/Dz58uOPWlx/6KLVG/z5DZ2dnjx3/0xYQvc3NzMSSdJEmLJ+JXTChsSGoFVGxaQbaAWJY1SKiSkaRKDAoKVcFNchxChsS6XKRPhnRQUgPmNSNDDDpi2+pqZkVFRTdu3Kh9+3bdunXr1LFD06ZNcRqhp3LBuY+KgX/7N4O/xh57/r1/PPoqnF1+7shXnrwd3oTd373Q74pO1Ixis3ML+oy8Oi+/KDo6cv7XLzdtkooFYAuzeTye99//4KOPPt25a2dERAQcM8RErEXYwTmLgwkPJoTcih21FRSIidGtSsiraJkLTbBAlr2Wg43aT6hJpxpVA1duZaTexHqDH5DA6YASpgVou93RaWlpnTt16nZc144dOjRo0IBOAwtZU7QPhNhvAhGz/kTHiYUA3bojk+1p1hfPd2zbnH7z/t8Dwffdd5/TPBQwJ0C7hMu4Vz/6aspcTEv5c/aogd6qKlhEBd/PnHnXXfd8/c23VdXeiIhI5shM0aqqFYticr1BxXIvG2YQCLJligYZk0JXXrhRUxgwTFf9TimPV+rJhPBK20Bo6S0NJSYsOO4bSIUcSv1FtkCKnJzcFStXzpgxc/KU7xYtWpyTkx0aGhYXH0fIQpWpzLKJSsYB//bBgNHhyooRES7OLejNW13tqaw6bdgJNmRohv8b4LdHpymxsKiUXXPHzpz4OPeCb15umJqIAfLycp997kXqHY79rrAw8puusptPWhY9kmPFEHJDN8om+kTlujOySzpOwHL0oQa91auGo8yQjVYgQKqtEAooXjQpGx5L4QiK668mGREi9dlYPKQuAOfgCIGPREZGpjdL79a1S98+vTp17OSOcds01oGqeol1COwW7OBAmOW07ak8/tS/bNycERUVPu/rl1qmN7bwMJzfBr8lOk2ntvbbH09+/7Pv4O+Sc4add/oQtDJ16tS77/7nosWLo6OiYA1Vi6HUx1E0F9GcgL5qOziQ84loV/tEU9jDlC+BiMYVdLo2ZJJ1cl8n9gsJptihl12ZFMoJBiOjZrEq2VXwdaZcWEkNqH1y0RFAMnaQ/sF9RATDebm5y5YvnzZt+rTpM9auX+/1emNjY6IQSpdXszrxZODfPgDYLEo96qBKr3fS9IUeT1VkRPjJJ/ZEjUbkIEn9En5jdKp/yUPawWffuGTFegrVxVPeaJAU89TT477+eqIe9eqqq6oxDw1VvUrOty5HD7pDpUYN3n2xJhe69Ic7+6Kp2rNe3VGlX+bZoOAoBcwgFPVIQDSL2cjNIcFhIaHqIhrO8qRahoQR54cpYmVbzUB9JggibB+eykrmJCcnde7c+cQT+vfu1SsxKdHQfrm/HowxzHK5+UV9R169MysvrXHKom9fiY2Jhjl/UocKvzE68U18dO6ilU/958PKyqoLzhp+Uu82N97810U/LHVHRVVVeWFXtzj9QjG2K3KDCeUqhRJKFIs6MYQMEpxcUanmHLOPXLWh6lbnUJqAnE+cEUjqRL6EemCQPDzSWkl8orZGPvVCfm9cI3PZqaWGEmydJasoCLl6UMdSr2GlcBfbrKvSU7lh48ZpM7+fMuW7dWvXIWNCQgJpWVipr3GUym7Y69ZAHEoPLe7oyB27cub9sLK4pKxDm2ad27fECZX/fcw6GPgt0ckUq7avvePfL731RUJ8/GWn9dq4ZklOXqH82Y3XK9oVfYjPwpmsgNoc0eyqIatI3FqXKMOYkYtqE21LWOqA+hANB1mTnTRkgJaFKqP0icWFiFHWz6thUMO1RikFyB6rx1l7DuWsq1Pl6twKCWnJDCUXgOeJJMhYUeFhpEGD1F49ew4cNKBH9+7YVWdJvLKu8Wng3/aBHU6WrdoweMxNUDtlUO+v3noUsQS5XieHCodsTtGGOldhUUn3U64sKi7vlBYRUlPIzoayvJWVJDdGlRuzmbT4YR01s1yMAiApW7/14ihRNWgdQH2POb8+HNAO/VGrQlMxZFjCVtUBGzJDzjmcgGtkXf3MC+Yxh83V6IGu9ZM+qVAPs6OUgLKFr8iq8uPoSro1o0CpstJb6fGwKEedE044/qTBgzt16qje4zictQ1k9XqoF0z0MGLsbdPnLI2LjZ494YW2LZsSKr+5IDq0ZGvLsx6MTZqx6L1PpnRvERkeWFoXGOL1VNAPy2YyGEdPlkulU7/qJeIq7PKCdq3LQNqaga0hCBoNzo2DIBc1Jk1BFtCHZADGoGahARvkWs4bfHErNqyr81TIh0cxVX9VE0Y6hhBRQkHrrfLSUAOQi8UlWE3tKKtKWxKAY05ezFo4QXhEBMQKC4uWLl06adLkOXPnFZcUJyTEx8XFwZew9Isk7GujMXDKKzwTpy2g0G3ZrHHv49rbad4f/+DhEKLTh4nYZKrb739+xqQJDeJdJRWVKJFRMhI+ix3BgRkRRg0h7OuRy7hEDTQsfQnPRlXxCT3Fp+E87JFVhbLT4FX0yBxF5AVmqqi5AgMppBs3bpSe3rR5s/SmzdLj42LZBSIiI+GAKdQy+Xl5+fkFGRkZGzZt2rx5S2ZmVmlZOcmWDQI2KIntQYXlQMnFcugMwYQwrKvL4upC0hYjKfvSYbLIsHiM11sVFxfbq2ePoUNP7tu3r9stv8UTtn8RrFgOjW3dkdnv1L9k5xYMH9z767cfk+UskR06HKw5QTPmkRaXzMrKuebam0qL89mYPJUV1I4qknChBAXXPBzNoHhdRLY3GeDF0YqGsTHgDAigPO7QIpGnijQBlTAXBdDgpLq6GmV1aN+uf7++vfv0TmuabhSqq2t27cosLS2p4twiT+RrwkKCMW1SUnJCvPNJJznZWfPnL5g1e/aaNetLSssQSmNY3AiTimHJ6vL39LbPhjjcGUNO4pcv4UlHpK1ZAUQ8rLy8nL70pk0HDx44YsTw1q1bGxZsI52IqwA1bHzaJX//dtoCTu3zv365SaOU3xygh2ZOx5bZOX+97e+7du5EYtIU3IjNTDbJrvVmE+GEIbtlELuo/cSvFVkIO/lUARKCTDxJgy8xNtrTIQEZqq0JDQ0lNcXFxgw8sf/pp49u0bIVQ1u2blu+bMWOjIzly5fn5GQXFRVjbBI+FHSnFP7JsSkpyTGxsS1btOjbp0///sezaebmZH/F6WrSlIyMzMioSMpy8xu+8SMsV8PWy61Wy7LLBlEtS6wpb8KXviqDfhZALkY8HsK1wh0d3aNn91NHjTrxxBM41DKKJhVHdi5IPvPqx7c98CJnqXdfvOeskQOtU8kcGhyUOcHRhcWWbBI33HTrpk2bIsLDPZUeZGNI1a6hyW7Mix4hADGI5lXDMYtrv2M5aQl98QJ4Ad3WcvAEjEF+BBU9RkZFo6G+fXpefvmlzZo1pyYcP/7DGTNm7Ny1y+vFfkGyL4aEysnIDzS940i1nFeqqqrKy8sqKyujIyOHDDn53HPPbd++TVlZ6bvvvPPZF19xpEGVJEzW41siVOZJtFoBpd6rQauPNWCPTmXTvtSmIgXLquwc0KtrysrLWL9F8+Zk4OHDhzdv3swYY6fHS35cteHkc24pLim95erznvzndVU19e/IOUT4dXOafoVjcoi36uZbbluxciX7jVYckqC0PFRUbkUYvrGpTESt6t+c2fXJulldcXmxhhpKJons+qO9whYIeisaoYNlqGswzMVjzxtz7rkMPTPu2ekzZhQXF3MsJJeicZ2oV2kIHajQLZEipBBF3E0tEej1esorKnKzsvr06XPf/fc3adxwxfIfH3v831m5+XDqrURAIaATFYSobIH6K1Xn6UFwSKg8a1YP1kF5VR4YVyGVBwlWdlaBiri4+OOP70uw9u3bh0wDHtm+/+hrV63fPLj/cVM/GsdU1aSjqoOHX6lsYQ6iIoQ+73/44cdnzpoV7Xbj3dyKnUiVsl0oGAeaYWmEhoRUk1Js/xcGtdshTFMllR6ZpM7MTB9IycqIMWDI1JAg3HbLjSNGjVq1eu1ll122YMHCmJiYMFc4nFSKe2n9JVlOlahsAEJIiMiCuiiDtTW6TYSHRyYmJa1bv/aN119LTm5w0pCTju/X74eFC0tLywly/U2f/HpAZwmPMAxjRCY/kgDkMzukKiaxoyNxY4ZFAyKOMG+MqBfgVsGhwRHhEZBdu3bt5ClT5syeW+HxpDZIpWpbsHTt8tUbiONzTjsp1i2fWCQkZOVDgF8xJ+TElpLKQ95/b/xrb7wRFRXJZqCDshECcuEHYe1WNSo6FBQxo5oSTUh8C3vKoXTIExxBk1ELQVG1AIvaZKWF1mqj3TGVnorLL7lo+MgRCxYt/vvf/kaENG6SRs5kEx07dmyrFi03b95cWlpK2kDduxkBdA3nzngRLmyTl7VSUlJjY+O+/PKL4uLSAUOG9ujedfas2fLkt6qqHhuQ+RKGSk9BjSefrBoM54JOutc30Io5za4qpggj6Y2lxK5QcIWHsw/vysz8ftbsiRMnVZSVVtcFLVq+qayickj/41qkNwKPgx74fsv9OhzInKpT2RjQzqqVq/7xz/tc4S7Up9LBIsyqmPIqfNe3A0ggcE/hbzZFrRBTBZr+pJNX+QYkfKXFasq5/mgStxaCccuG1+O4bldfe81PG3++5OKLo6Ki4uITvBzjvd6ePXs2b9aySVrT5i1aNGrYMC4uhvRbVlbGEARwRBiQrUiXUQaFJZQM02KOwKDqGimaEhIS3nrrDTJh734nJMS658ybH+2OrqqskkMtE/WXkaITh0vjTm7oI1dJ3iVq9ff2dpAlAxgKSCxjcjtXARQVHO5yUQPPnTc/Y+uG+OjQvKKKrp07HN+rE7WxnNs1nMAXEgcB+zUnVBxagYHsMGyZBYWF3GpJJsRle1RenbAUZUlZz2uV7ivGgENEWRK5JWUB9WLpjTLsAMiCXy+w7rw1pDfc+vzzz0lv1uKhhx9atXJFs2Ytqrw4lrz1ZPOWLUuWLl69ajUepG/YTLzk4ktatW7JetRr+fn5HGgwLXGDzcJC5akC68MwAM8sBtvwExrmioqOWjB/Xveevdq1abNy+TL50Ao9TDNDfuRFTGs9NBzBVVKzL84hJxtJx+LLJGEWJ7uaU8qw+biAqkMKi0D2fprhwVUxoZXlJUU9e3RLTk4CHW3DpGHrgr8C+zUnk1EnxQV+/dTT476bOjU6OpoyUnhSvmHFRNSdSStTvvUBngwrDcWSlCYgE5x+MAWJIdkhcF1pa480LJ7VmHJjZo2OijrjzNNz8wreeP11go3oBBVqDGIkbF5aVrJl65bVq1atXbcmJyePzW/4sBG9evXmTNKwUcOmaWkdO7TPzsnGuuiOBSxebUmWgXOsHhUVXVhYyIbauUvn/NzsdRs2SfEqDEnppPI6ka2iOMIDsKimFWTplas0sKvY2/fGJf3zMVlRRlUZCpKCCZXaALwtJytjwoQvUXXXrl3Zvw/Jovs2pyhQ0yzZ48elSx948KGo6GgyGzzBsXijxCTcqj1lDdEpt5R8UkeKftQaClCTPhFAerVHb0VeydOyHD3iPSqqPC6X0l+uIqkUXC6Xa+jJQ7Zs2/bKSy8SkfHx8awrSlAhIUU8yCM9gi8oaOuWzT9v2jhv3ty169ZlZWX37t23U+fO7dt1aNasGZrJyc2tKK+wvxKBFEcO5ZGcLyKsXb2S6mbo0GGFBfkrlq8kgUJeFKqrCMdiLTVbvdXgwVGEb3PVtg4yJD1QEBXpIyp5/lElpZPOl0HBFJqiAaRA8FmzZi9cuLBH9+MSExPNouDBJFfR0H5g3+b0zeR6xx137tyVSQNTmfks3rQlTAinwUHylgA9Gpu97CIv2vQBsqkNhARiikhmee0Elx8xqnMn/fyQDCnwe/fqGRwWNvHbb8pKy2JiYwkyycPCjyBCj5OhoAfUYXtOn1AqKizEeAsXLli3bt2qVasaNmxEvHbt0rVf3z5MgX9KJ3Y5VhG7hgRXVnry83Ji4+KHDh26adPGnzZsAg0LCYjAGn2aMM0GCr7X+oYfgO6Ma4tpsh/pllQbIH+QhGGxLjwLRcNTzUdHR23ftm3SpCnHH398SkoyFpVBJXMA2Ic5RYNWAQUHT5827ZVX/ktFwN4DB/QLRaWpqyuz2gQf0AUdM5hmAfoIPHzYboVpQamH+n5AZbHE4xDhwi3Sk6dcoWGDBg1cvGQpsUdllJScwtqKWk/OVmcC3Wot2cS0PikqLs7Ozvpx2bL5CxZ4vVXuuPgGqY26H9e9W7du1OpQKykuCXOF5WRnUcL0P2HgiSf0nzljZnZuLqzLqVIfSrAMKziWdZaTCyC68LO1DQI0ABOHu/ovAehIwpcYJxHXVOmbnqRfox4hIiMjCouKFi5YOHLkiPDwcIj409wn7MOcTLCZtO+7/4HMrGxRESvRIxpXRSseF9kbZMOv4p5b1a6AsCgvdfiw3jIFBMjKTLsDQVv81IurIG0FLKsvAaSmiIiIjRs39uzePSU19cPx78MeUcWRUb3IecIJqM6UDlT0Hiq0sCvximUZ2Lz55yVLlqxZs2bDpk14fU5eHs5KxV5SWpy1c+eWLVuuuPLKuBj35198SYxXVcvflkBK6fEtS0FcmBT+5bSjndJlawqCWssazr116S4oXEmfb1zysAyJWTl5SrAyUFNbExkVlbEjAyYHDDgRJQmpemL7BEfX/kAPCiI0V61aOXbsJWEul9TxrAp/wqNEqS4vHAD1tjAW1YzCMRdrOMCNopgY9irKsMezljbpVDRHNzTghLn0q9cHu0JDH3vskfc//ODpfz/ldsdwVmnWrLn8zlzfXSYFqni3clLvkVzhVnkhvTMoMuidfGqnbRARERymy3Kydm3atGnAoJNeeuGFhx9+dNv27Vq/1Ng5RcRUYWjIfq6PoOQOBnWQLhnyoVkNoYB0giCrIpruLzLfQOgoQaVGk21LiAoyzFJBkGw///xTt9stjltfFu0T9jGmKwjM+n5WhcdDspK3aXBEwsPVieSBiDopAJroy3lyK4VASCiHAdBDw3AEeedjRKRAFKkjPCKCDnIa9ETpog/JjSqtCGhvFlAuHJPYitzitlVVleWVntv/9veRp4x49dX/gL1p44bVq1ZmZ2ezNMHHlSmiDeFKLCeEuIqKxYzcMqua8lKsWEfhhE+43bFlZSUZ27etX79+zDnnPfPUU6+//sbW7dvhrdLjYVZ9HScg9NRcODOsyZe6t7kJID1yK1+6uHbKH2hYExXpFL2RaYKnoaGnTJkh722Ss7Ley9uJ8/LyMjOlfKlXzn5h39GJRjDdXXf8/fMvJ1JD4sUmQz2Tzi+LxRjaJ66ka8tsuqShfEo8CF/2Xj3jWGhoFIJsLokd9WQmhpDJ6rGa4uTXkOCZKzPAbPY2KF160YXNmqe9+uqrkyd/V+HxJicnN2rcmCIwPCJc+BEiIogxItzJmnpnalK2SGLl5QRl1o4d28vLyq666sq//OXad98bv2zFcqayg+BM8GKpAWp0QgVWhDwvWr/Aqooh/giGrixLyzigc0RCBNR+6dMZAvYi3Qoqp8zXX7lwi8cQS4y8//47LVu2pAHbMrwf2I859RfUN99045RpsxLj46ss2Yr9xPGYBZpYS+fSDxNoSPlQbgRFxmUOIHPkXvto6ShIRlDuWVMmK0DNqZtUCdhYAFkZA4tVQ0LDSkvL2rdrd+qoEaTDlatWclCjCmUQ5wMSEhPd0e7QULycpCILC8dKGYJEp8dTQXmcl8e+mduyeYtevXqMGjkq1BXx3vvjqYQle1d5CSPlVX1DhZLVnQ4fiEXkBfZUBLMHX+KSMkVF40dkMHwBOLIhu6VRT8q65QVOJUxlB6n9cPwHnLLA/C3mRGCy5XXX/uX98Z8c170HOYdORycK1pYr37o6Xz4E7ZNbGWd9saT2ivEsAUpZwCtTZbbRkE1Ud2IJBzW/0kBKYleBJKnvAQgMxFQELjm6WXqz47p1SYyPwzZky/XrfsrJy83Ozikrr2BTQAo5WMrjNylnoEkBhZUjwl2REa4WzZv36NGjS9fjOITOnj139ZrVYHJyB1PwVWRlTjyJFMPGgDjYSV2XfhEWFcMn8gsyuwZddVLFMF3MI1j6BajZ5Lenpnb5kShUK6pFdV8VC+sotxxr0BoO+fHHHzZu3Bhkqw/2BweKzptuuP7Z519o3qJ14yZpUEF9LKWqF3soar3p6m/4ki6xg+xYtOSGLvUpWmJaJ1pkFg15cSiYdTUK9QskwZSdWfYcGaxBdEVSmbGUlziq8kZFRDVp0rhZetMGqSkk3qLC/Pz8ggL9ASEqKrq8vJxtnN03ISExLS2dHdMrj95qt2zbtmbtuqzMTKyo70QRP7MFlUnhQQwm946IrG75RtgQPiUz2aAIAoJUAw6ftJBBrjJolpIrGjb6istFNcCQToYKvkvZATIltzs68tNPP42Li+VWw2C/cEBz3njDs889HxXlhm7DRo1iY+PkEYkU0AJgiueJvAZKRwxqPY42uMhWK93a3g0iu+CKCrhzWip5PUvWp9WvhTh6hDHZVlVgyk49I8Gy6YjokdSUlJiUnJxC7QVyVGRUsH4MDqhUdtVVVbl5BWWlJYXFRWWlpdCkXrO/DERTLCIbvS4kcSBknd8QAKpz+QETgmChe+FdQMyIXekRJDGJsCWmwgaKSYMh6ZGgrIZSfY/UvYZpc2lxCQ930YEjNm6U+vHHH8uDEY0QcPYHBzLnLTfdOO7Z5+LjE1EblRdnoMio6Gi3mzpV3gMHH8RKfTCxyG7BLPNILAqYtcyDiTVB1xwsS9ugdOhcyEnpIQ2hyNXhTvBBhiANix5emMsrq+vTUKKtWsjVBcj7trlWV5nXU2WzWbrCI7Corl5nj20xGOgGRk3ZVLI6DDvChTInPMIQ5DQcWVQZA2QUdHpkL5AOwxMLccUyetF2PYjiZK8QgJLMdUJdAIqI43JFMKOwsKBjx/bvvP22TWchIb0fONCY2EVOhJAIDgkLg6HioqJdGTu2bP45Y/vW/Lw88oDqGaVIQhfjqj1EYcKlXOijQScuAsPsHMY/1AQdEWol4XAv3zam0ooWTGOiZF5kkr5IS2hCUZ59VtHAczkLkVTl/Q9S3MvTWzfOJxDlcoWSqVxhoRyWODGBpg5hJ2ZIswD0NKn6OiTYJPKET9kR4UhdQ+fYREEUELeVuY4TSIzjur4mKY0LZ5X6PnkSJC09gzFsrmkHGAGyglSKsn8zq7pa6nbjRBc7EOzDnPBqEBcbx60IBiCLs0AwcpaWleVkZ+7YsXXH9i25OVmeilIEZAy+HBKidAPhAP3g89YUamZmJa7dEhCAoyQH7Na5x4By9g0JlXsjoaOM4wZe9k9vJYxhVxIIuwNK0RpD8DSYNJcaAyQJCXUF8Ry8hDsno7CSMqqkRWjlnAEo6aK0zf8YEzb4kgJNzW9C6u8MjSAvdLE08+S9N3zpt5BSq7IRidUFxJRQYIxynBQo94wGB1PuqcQCwsD+YR/mVNICzZo3qw8+4UP4FkUKgviYFF1s1J78/LyMDE7hW7KyMqn+xYkYFD51w3BOGiK+EucCEck/8kpLDCtXkES5Gpjar9METbQGtVw2vfxcOuWBhmyfohPjx6Ss1j/CxbLcRkTI4wt5Dxi21H1OpDAxZKY26/MhTWVZvlEor9KpikdQX4rXHrsKaBQappACQbmRDhmAiCCKTDS4JRiEms2FjCDqMk5cSr8xERoWRuEGhh13W7ZqKQsYSweEfeyd8IQFIE9S7d27T1WNqBL12aNLxeDKLNGR0+SK4SQbCNPhqDIqKiI8ArZENRTuNfLneTJTCbCmpiN5trBbvYypffRH6Du9qjhPZYVsjjXy/g1409QaJX+5J1nIOR7olwmkGlQjQAEEfc+HM2brgCOEuVHvFK/VCQxwhS9VubKrIJN1Qzfl2BBOxywoQ8GYVZ5thrOKr2F2ld1GfvMjAGOa9RjTi0qAR8rDkKAQDmjeyoryioo3XnutTZs26scHOqUA+zCnLW3V0AvPPnP9TTcnJabIYznnWC0iySQVR7EVEEUG+DKaSBjsCg9H6aie0hF1afhJHDIuCmMOahFqMoGmyiOkrUdQJG7s16g10TEJHo+3rrYEEt6qGk+5B5yoaHdcXJyuLQoxCjJXu8DkBcOwEdCJL+ggKGJbwYEtRZZNRE54mFNm8gOiY+WgYC36dKamUPViwbHqBSxLJPgDA6AJcV7MuJqToeA0NO+AwYAqwy9ryUgtjiqGhl5AbXFxYXJS8ttvvUWmoUuWVsz9wb5+o2Jy6jsb+vY7PtYd/e2kyeQAolO9WdWjAisTGju2hvZwQX4kRBjKs4ry8pKSkvLyUnnnqu2+IZKHdR2xq1pBRFGKyK9WMdUp0Ca23LEx1VWBjRsOSknuHhoWFRhYHeWOcrvdJSXFxcVFcfFxqgG1pjqcEhGSohbxTrEH9RF+CZdKn0EnqRr7FmGCrW1E1lE97wZIiQseTRFNzCQL0dZOYVosz6u6qCBroKvbKFW5kRYXEZPJmsyEqA7xo6wERURy3JR8FhUVXlRcfFy340YMH86tjCnNA4AJtjfIkuZK9lvP6TP+fPU1ZWXlurTkXk33wjMoaM80aLOQSIUV0FvlVnQtDz9xCspLakvcTYs9fSwiRGwGNHbzQ4u15PgRwDEpEi8Ic4VGRbZMSOwaEZ6+fPkzLld1SYns1jGxsSQuJphFdU0DXV3Iaj5QjZgNpDBGRxr9BKcwzysoGFXeRSenT9WvUKi3tDCoRDgfyxciqGQSYcqtfHFrnNsUEGwhJrKKHGZUK/pYRhiTNYICa6qqOEqxPYFCGIQESzDgqtdee+2Ys8+GgrIkZA4A+zYnQD+T4YwDHeXiDTfc+Op/X2vUqLFX3smH8aALI7aJw7fQQT6Wk1nQVfHsaqSMqgovaEQ7bsgxgv0vJDRMpBQQMhDk1dRBlypZACK6ecgfiEVGJYcG15WUllEcpTZoyPkHPux5vazoPHZwJspU7bcOU7pRMwHplrbyrhLI0rIuepYf7dFhmY751Y9hFZKsq5blRtyGIkMMpg4kZgNT2io4etD8LyDsKKPWFmwp3+BJptfVxMZGZ2ZlUbE8O25c8+bNzZwy5YCwX3MCNgQfXDds2NCtW3f8JSkpWSVXpYjYug2oVHKEkgJEjOFMriciilCuTavSqwakn9wb7iJe2WIjQ0NDcWwpbWRRBkUXSl/1IjaRslmXruNsWVCQHx0d43KFsaJoSteTJdQErMGrXrm1vKpjAtxJzCELrBM+iGasStYBSUbkfTBMlfVkd3TSrM2HH0sp5p0isnoAL6CpffV5iGpYJBKa0jbD43nCjG7Pauva+PiEyiovFLxeb3JSHOXC9u3bu3br9sRjjwkV5diuB4B9v1fIwEcCHlJSUrp06Txv3vzs7KzKykokhG95miziCoBZVlqK4KIGVCJaYVBeaUjmknvdKtSqDFArmeTeSk9pKTtsSUVFOaJxuLQDLjRNxaBLuW3PXLC0+gNscL7EG+iHvCHSLwvWZ10DxDB101BMMYBwIvgMSc4MDXNpRhX7Gd+CxnaoYghZ4UcSMoT4NtuoTOK+MleX1E4BY0cuJrFMc5iQr/rtiRfmcqRWhQR5K71JibEVFRX5+QXwdNGFY1u1bImxhSXh91dAeHKa+wJZTqlAEdUXFBRMnDhp8uTJc+bMKy0ppqZBw5VeL8bgcNKta7fNW7YUFhSQnIk2rrAo7COoimICCNl64nKrXYKEOviRNzpTEusvvY2I/IICk8nHNjNLNSE8YW/jzbwHotxw5lB6AhZn3Ogr4BiKPvEjMZjTxZicZdUR4UFOriovHOFYtMETDxYDC311NUjKRFkOCmpR2OfL1gUk/ZiGQRS/kXfb0g9ZesUJQkIott3uGBokiKqqajJUXGxscVERRz320Scfe4zTARRgRij+GvyKOQFFEJH90/eHX0y55Oo7Yl3VsZF1BTm7KHAeefiRsWMv+OmnDdOmT582dfrKlSvzCwrQEHaFIfE8KEBKXNipnlRCS5AsIfLJMqJcaUvQBAXJUScyilxMUcoQWdFclVn8oFxnigghgbVbbKNkFxWA9QRZlK+IWNLMKzlDvoSYEEC3IV6vp8pbRf6QZVRLTBXiegVZ/UT7dTKgjLG6SKQ0Hd2yBA4B39w6PQQ0GUXsKm/DFJcNlIRPBurYoU1ZRUVZSZm3pvq0UaeOHj0atcu6SofrgeHXzQk4TCh/eBDRk5Vb2GfENTuz84YP7P7s/de4Y2KTk5MMGUDUNavXzpg5c9q06cuXr8jNzcXvo6OisQ0WEpkM1G4owwRVI0odpLZhPYlq7ZOYcLnkCKtB7wIH3THAFNWmv7qZJnZFMnQqZLWHITMAJpM+NC5bokS4hbGsJ9ZUA8s5Vd4LwYletSzT5CTFqLqDUFPgDjo22ejDME7AFTSZK/+TV945XS3PlsVJLRdDic0D/Pi4+Koq+Vs8b5UnMSEmc2dWq9YtK6ur3dHRd91xJxlKkA8uNIGDMqeBD5MGMo+++G+TZixqmJq0dOobyQkx3qoqdjxVsiQowwSI1+9nzZ42bdqPS3/MzslBDFgM13gFU00iU6CqbVWMciWdSF7PXa28vw3BgsNcYfJYPSo6zOWCGitqTgPUJgpCwmkpASULQTGHRqFgSnCKPZ1JjPGjdLQtyZwtrba6xlPpwTCgatYVFChgL7kKlwJoXOipS9GnsogXwp40hB95L4t2y0f0VFdXu8JcrM9JmBVLSoq6du2w+ectWzZvueKqK9etXz90yJCTh5x8SKEJHKgU2gtEZiVKwmON7LzCqbMWl5V7Wjdv3K1jK9W1qkSXRyRY4TYpKbFH9+PGjDn71FNHdezYkdSSl5eflZ1dVl7KKIGOmoysGEGuqhZRgHOPBvRGKDOC35SWlhYXFZaVlrDJYWDcCLIMiXIVVHqZLXsxLVG5EgOnvqBVM+iIxi7kzaMM0WioNuXZFgiEF4yxfcCQOKCtg7CKKgKrX3JnDaUlOtEVZJy27CAqL+aMYcuEjcCA8vKShg2SGqQ0XL/hp4jwiPYdO9Z4q8ZeeKFNBxmgfTBwCNHpA8xJ8lzz0+YBZ9xQXFI6Yki/CW/KPxczpwf8aYpg+izCx1PGzp1z58zVDzNclJGxk2HKnggnXsX9ZTo/+iIT6qlJGWF7LWyLoSQwMYPLJX8qFBMTQwElu538bZ4o1GaJmeQZAmBuLiyqlsXioi9lmh9wBB13qn9Q7gP4p1/+1La8whXukjjTLZw1xEgIqDWwMiy0dDrryllGsrGT/wU4EsFeZFQkq7BiYVFBWuPUgsKiBikpGZm70po0oTK6/LLL09PTIStUjL2Dg0M2p2rZUfGIC26bOf/HGHfUrC9eaNeqqZlNsRzwJ04bBIQHrCc7O2fu3HnffTd1/oIF27dtq66R90ZHREQaEdybObiztOvp1DfU96UN/1JkmOTh4dg1Rn7BDhE5wEjdhG6ZxaGVOBCjsrwo3JTOqxpazGhtGRZ/USxlVWyp+gzkWEyMlhQXkYYZwiwyV57vsDpTxJOMGiyJsYSsXOFVxuW/5NTJ43WcQ7aJuoL8nAapiZWVVfkF+b1792G1kuKS008/48QTB1iaVWKHAIeQbA1sAfRE2vFUVn4zdYHH402IjxncvzshITqox7GGgbWNP5Qr3l1X53ZHt2/fbtSokeeeM6ZXr16El/zpQVY2WRRz2dFTFFpPgC/TuRDjRr51UJJnCCFEBisrKy0qKqTQJ5IYIAmH6kcvih+IA6BW5sgTO2f+bn+TVejBUWw9sGFXxtWlQIBtFuL8JO9pqa4mjOmVDCGbqJAXr5J5ejy17AroGYbCB+/iWILDIgUhWpCfnZgQGxsXL5r0VBKX4LZv33706NN9thRSxszBgcp56CB8Bwbm6AcTZ+bkt2reeN7XL0fLs2ORwUHaF/gvR9vo+GK6uLh44aJF302ZStT+/PPPFZ6KcBJoRASmxWYaqxqWOlkvQmP3rf4oVX7kA631BOzGUaKi5Y0K6BR00Q8/ujsa0DL1qTuqBrWPCzRRt/SQV5VPaMMVh0RO24zaEKsSrExnbQk+lGCqkEpAHg64wsMg7Ha7mVBWVlZUkJ2YmFBYXNKsadPY2FhkjIuPJ/RvvOEmcoCspSWVQ/yg4ZCjE7Bl8DW3O2rD5h2Ll6/Pyy9u3TytW6fWuJVxsD8+6DewtimRtligrg6pWrZoMXToyeedd26/fn2TkpKRPCc7p7CokDMDeqHUtEzFPKOgFNUKeqMRR4c8FqDX4rWwoKCwsNA+bU0+BUw+L4NB8Q7B9hnSYlHSrphJ5BQvkcgTqoDcI3sQwQkbbPl4DYwxEevWMyO8iMvJQYXNJbiyshKDYSTSLAvmF+SVFuenJCfbhzlQGDZNb8JxpbCw4Kqr/gwmiygNIWbLHjz8xugELCEsX7Vx0Nk3er1V3bu0nfnZM+KPzn5xCODPA3bl6ovXioqKZcuWT58x8/uZM9euXVtUVEz6lFMKp08JMImV+vgUXcuXgqneuiSmiVb5FXpAmCs8OtodF59AqrcDFQNc2flgGtbFFvIqha5p1OwtOGJ19QRJs2JXKJA/iwoL2SkZkHdDMa1G3uPCfoQUpASqnmr9y3h6srJ2hYUEhIS65E1L0ZEbftrQqVPHVq3b5OXlXHfdDelN031pluV+A/xGc9ostASXY678x9ffzYPU+JfvPWPEAHYFOhn9DTz5M7OXXYmzlatWzZgxk+8VK1YW5uczRHxwDNVqVoyAzbQhCVgIQc65kX7tgGq9XcNc7pjYeLFrDC4Ct/QzqjbDgg5Nc03t1Ce6zNQSSdYSo1uyCCwqKCDaqLEJVljSDZUc68F1MC1IJcXFublZ7ujISq/88WHbtq23bdverl3bVq1b5+bkXHnlVR07dvLZEr65KsuHBr/LnIiPMLMXLB9x4e309OjSdvonEqBwwtUwfwPsxRIqpsf/0cTatetmzvx+6rRpy5Yty8vNRevkMTZZeZSDTcF2zOj8zoOL9fKq32hKDKu/SQ00u8rfQbhjwu2DleUdnc4vwkSrYl9Z13StFKFf76+KRAYnq7ObYr+y8jJXmAssfctgUFV1TXZ2pqe8JC4urrS0rLLS07RpUxaiDm/cuHFuXv6Yc84fOmQw/oqDQgriDuVDh9+ebAHmWoCecdldk2cuxLpvjLvzwrNP+T0B6g978WZ2NZmtZ+PGjbNmzZk2bfrixT/s3LkLdqKj5BeoWIKpgq9Wrackd3rjBCugIohdGXCFh1NnJiQkyRFW30jNgPiE/NLDWZQroMSIVLmFAqELafPg/LxcLErb8m1JSXFOdqYrDE8L42wtCAX5+F6LFq3iYt1V1dXFNXGvjHswMlyclVlK7bcr7beb0xY2yy1cumboubfQ2bRJqpS4h/UfMRn480kbG/jbdcvWrXNmz508efKihYt2ZcqHBUZFRVETU5TSVj9Q4wLMMNsqoADpFNOYXeVvS8LCw+Owa1JyXGyc2NU5WUn+1GSrrzKLEdlfLXghRuUsUsNbSHB5eUVOdlZFRSnbZElJKcw2SUurra6u9FY2SWtKNcYOOmXRrofuufnCs04+XAHwe6OTq2n2ylsffeeTKbTvuumS+2//0+Hi75fgzzBtWZ3QMf0GBGzbvn32rNmTJk9euGDhzowMlqcSiQiPgEOQCRcmKAHufHScezE1ZPRpk9mVBE68JiUnY12CnrUYqp8okvGlIS+P+5lJcoeVykpvVnZmSVGBfECDywWafAxOdU10dGRiYmJkZDS8VNeFfL+ioH27ttM//rfuwvUJ/ffB4TEn7ro9I6vfqGvKyj1Ycebnz3Vp3xKNmBIPu0UN/DmnjZkIGst4QEZGBnl40uRJC+bPz9iRgQ2JV0yiLIFvhpEAM+aUmI+ilDxCkypV39ETHhFJ0SR2jU/ASBDRANXlxEuQtZawKykpycvNKS4sCAsLwZKcjpKSkjgykYEppJukNaHUDaj1VgVFL99alZNXPOfL53t2baeKkt3h9yvqd5nTAAoIExIS/Nxrn9zyz+dcrrB+PTtN/uBJ6OJxhzfl7g98UtDAUCwqilZgT501a9akSZPnL1iwY/t2MKiHqUNgmEng6ww4pG0z5EWUy0s912icUoXu0DBXREQk32Ry7AQqbuGpqPBUlPNdVS2ftumOdlPfVlV5k5ISOf8U5OenNWmcktqwqLg4JKi2Kix59VZP5q7s264f+8Q/r6tPY4dHQ7/XnEyHEdGH+HLd8AtuW7B4lbeq+pG7rr7t2gvY6u2RiqE5c44Y+Msi/Oxt152zNA/Pnzd/x47tuKD9qg4DmB5UAqMAqw4pX4d06V++VlZWylvtq6h+JS3hslTdklbDwzW5kl2hVotRo6Kj5S2lnE6ioskWbVs3T2vX+6X3Z3o9FS2aNZ494YVYt3zYFTSgfFj0c3iiE06qCdDg4FXrfh545g3oEftO+fCpPvqvAklMoB0Fc/rAXyja+7Dr7DmTJk6aN2/e9u3byJQar/Io0WdHpcC3GVGnaQtiRCq2hCYdmn2CQkKC5P1N7OHBIZgTo5aVlXGWTUlOiYqOYsPOz8sbfeqIM8+5+Jyr/5WZlY2uJrz5yNCBvQ67cg6DOQGhEVhXUy0p94U3Prvx7nHsU+lNGnz/2XPxcfJ5G0d0Ez0A+EsntlAefHbdlZk5e/acb77+Zu7cOeRh+JRf1elvY+Rpv5N1fY8g5GpVEgdTkiS3CIRogP6Zt1wgII8WgoOoeugpKS2Oi4258qo/n3nGWaSumfOWMvHWa857/J5rLc0eXp0cLnOKmlAHQQmLY6994NNvZsLpqaf0//g/D5DWrEgxNGfOUQefpDT2qpt27do1c+asiZMmkoe3bdvGeFRklLzbAdCHCUwiEfOCOeV/YunHTps4yEtYY0mA0CR7R8sfwsrff1VVewcNHPSnK65q0rjxzfc889xrn4a7wqh9Jn7wpEufQx12nRwecwJGBxlhLi+/cPCYm6h1KXTvvvlSzi32DiOGDi/3vwH85aWNVeCHaLKeHRkZM2d8P3HSpPnz5hUXF5MJKW7Jpmp7YdtiUz6QSB8oEsTBIY455T8hEdqRkW63G4Oi2uuuvX7YsOGg/eedCdfd+TR7KOac8dmz+s9SjkjZf9jMaQA1q3LnL1417Py/knxKSstfeeL2y88feexY1MBfcNqYR2KxPl45v15++Z+WL18RG+P2eCq93ko6sS5zsAQxiuMyDXwyM7bUIigcKyYlJcTEuDHrSUOGXnzRxYg8ecbCMVfeE+YKLS4pG//SfWefOqi+mhU4ds1pduJqFv1owvSLb3gQR63weMa/cv/oU/pT8VIwHDsWNfDXAG3sCmCejz/++Nxzz8NKMe4YDqyMEpiybeof7suRVX/XQmiSY6MiI5NTkmW/DA1t06btOWPO6dGjO1MW/bjm1Iv+TsmDLdkv2TWPaLV/OM0JGItcEYDa4L4nX7//328maDX08asPnjyg57EWo/5gqjDeYJhkOGXKlHfeeXfOnNkZGTvJulGR0SRSIhJb2pEa45kto6Oia+tqUlNTzzr77DNOPx1vgNTKtZtGXfS3kpLy4tKyy84f+dpTd/jKnyMlPnQPL6AIu3I0o3Hrvc8FNTwxvu2IhHYjp85aTI/XK1W+D/NYAx9XvkZOTs633357+2239+3bNzbW+a86RG1UlDs+PiE5JQUrdu7c+YEHHqCkAt8EX756Y7OeY2JaDQtuPPD8q+9Fatlz9V01R07wwxydBkK3/tkCPn7DXeNefPOz2Bj5303vPH/PqJP7HcsxCvh0gghcfYUSt2vXrp01a9bs2bM3btxI2qXySU1N6dW795izx9j/MWKjDQ93/fDjWvbLQqKywnP6sBM+ePlechVkJbLrc4CSPNwA9SMBZkstA8Ufr7vzqaCGAwjQ6BZD3/54Ij1ycKt3VUM+psC4MlApZMt0xvYD+CglE41JMxakdBod23pYcKOBZ/3prvIKD0Rkuz3ywh4pcwLGt8+it/zzWSya2H5UWNrgh8a9rShiVK7gHVEhfyeoCRwwu3J17tXY9JBLzTv/+95X7pansLkENRpw3tX3UhSDYxqgofSOIBxZc5oA5t007njoZYRMbDcyuPGAS298iGKPTnYaQ/PhH7Pg49AaPrDARca/PfBiWJNBCBjY8EQExO6Mmi1tljWOHBxBcwIq7B4WfXP8t+5Wp1AgIHbvEVctW7WBTobMtX34xzj4+NTQFLk2b9s5/IK/hjQeGN9meFjaoEefe9dGj7JcR9acBiYJV5OcY3XLPueGNz2JfTSpw6iX3vxcsf43wtTHG1ffbvrxV9PTe4yJaDYksvnJqZ1Gv/vJZDrVRY9SjvXB0TAn4FMBewyN7RlZoy66PbjRgLg2w0ObUC/cvWHzDkNgX/IhW+MYAR8/XH2myszO+/NfH3c1PYnCh9Dsd+o1K9ZspP+POowdkYPKPkEW0+ocXXBKQcx/jXvryZc+oIFqEuJi/n792L9cemZoqPNXhfK8DXxl7489zPirCNbosKPL2x9PevDpt7btyNSPM66+6qLTHr376siIcDzyaP6Wdw9gyaMG2MlMJb6t3j1n4fJew67koB3Telhok0F9R1399XdzFVeeK1kBSds38SiDrWuAF9r2D8xeuPyU826hRHe3gu2BbfuPnTBptg0Zjk2xnqMJRy86DWw581wsGhISwrGMwuH51z8r91SGyG8w6k4Z2OvmP5876PjjDL/mF/+p/Si4vL9aamrlw3AkWwQELF3x07hXP8J4VdXyUUFwcum5w++7/YrkRPmsEX0vvKPSox2XCkfbnAYsatJiUUtcP6786YGn3pw4faH9TopsfMqg3n+55IyTB/TUGQEEKxNMpwZHQl/+2pDokj+Fdx4JLVy65uW3vpgweW55eQXseauq+/fu/M9bLxvcXx61yw4Cpv5hyx9iSIM/xpyArYvkNOw3MNx+MWn2ky+O/2HZWsIRbYaEBPU5rsNFY4adNqx/Yv2/IDe7Ei3+Svs9GvTXAC0SJR3GD1BSWj5l5qK3Ppo0a8HyCvJHSDDbZMe2zW/+8zkXnT0MPuFHfxH+RwalD/4wcwK+pVEBCQ01oBXc/JOvZz732iekNRsGrVmT1FMG9z5j+In9enSKjJT3kls/fiC/QWb+vpT4y06fxv2lpq1xyOpORgWw2eLl6yZMmvPttPlWdTMLQ3dok371JadfPGZYlP71Iz0UPT5i+2TjaMIfaU4fmLJUO/LhM2gFo341Ze4b47+ZvWhlaVlFcBD2rgsPC23VosnAvl2HnNizZ9d2DVMTnfkKElRqFwF9P4jvxQEZ0nHFQfMs6p+9gbz8oh9X/TRtztKZc5eu3bCtrIKlJU+Eu0J7detwybnDzhk9mNoVTDj0/aqL2z/ckAbHhDkBfzaIVN+OxZ46fsK0b6cu+HlrBtsV5gHRFRqSmpzQrnV6jy5te3Zt265VeqMGSe5o+cyWQ4Xyck9mTt66DduWrvxpycqf1qzfnJGZ6/FUinkCA0KCgtMapwwd2Ov8M04+sU8Xm0J21Yrn2DKkwbFiTgN/ZohUDR5RFhvY9/N+/Hb6grmLVmzZnlVW4ZE0p6oMCw2NcUemJsU3aZiM6tMapTZISUxKjI11R0VHRYS7wkL17ZbVVTUer7es3FNUXJpXUJSVXbB9Z/a2jKwdu3Iyc/KLi8sqvV5Cm8WgybTGDZP79ew4fHDfISf2SEqQbRve8DNJHvVwTBnS4Ngyp8EeRuVG/1+K3ZJ4l63aMPeHldSZa37akpmdh4XkhKejot1A+ehoChamWDIUUJqQwh418q8V5d0+vmXUhEGREWEpRHzLpr2Oa9+/V+ceXdvGx7p1XMpvUMyxDJTksQjHojl94M8bNuPq+00yUFBYsnbj1hVrNq5Ys2nj5gzirKCohFOEp1KeI5ofAA622oAEqmmSmA6hlomNiWrcILlFs0Zd2rfs0qFlp3bNkxLkvxkYYHMKJCc/KByzVvTBMW1OH/gzqSXPHu+SNSAhZ+Xk78rOy84tzM0rLCwupcdTKe/poPYhXkm8pN/YmGiO/Hw3SEkgLcfpeyR8AHFN8nsG4/+CIQ32Nqfdwj0NOQbUg6+K20uwQ8I3ZAOaqM6KTB9Y6Dg3eyrRf64YVI1qIQgSUes7KR4SkHclCpVPS83OgIHUQ9pb300LZH9JDehHZIasbZ1HH4Q5p7mnbQ6GJx8+Tr2nN+8bjCxXOZD4pU1/YFcztfqIc/VfiLu94tIHHBZhQ1DlZ/8gRtojb/8qYHNW39+6xw7sNqdPZVa/kaamzFxkPeSrE/t0JUGBY/oFduPrM9XSsvKps5aIUVF6Tc2g44+Li3XvhU+bK4BeOOHNmPfjirWbSIwYyR0d0aZF2gl9urZvnQ4y9vbXHUtBxte5cu2mOYtWbty8Q/6cNCgoJSm+W8dWg0/oHuOO0lQpYMvZ9L3A6LDj/vTzdipfMJ2BPYFulys0KT62RXqjhPgYeghlKqzs3II5C1eE6v81o5NVSOhNG6VQQ/l6ZP4fAY45fXzYQ1R2nfOvuffbyXODXWEYqKq4bNo3L510Qs/q6mr5Mys/fHlWGRJM6X/2Ff/4fvaSEFcYg9WV3h+mvsFJ30YNH2Tb9rD9y29PePz59zgnyD3DkAInIIDTxXmnD3n0H9ewpZnSbVwYUydjd7zt/he/nDynpKzcphgw1Lxpw3/eetlFY4YhAhOZwlyuDoYfVFVVhYaG3nDX088/83ZYUrz8QW49A/7Y3IYEB7HjYsvRQ/vfedPFDVMSoTll5g/Dz7w+LNZdUy0f4hkSFOQtLD7r3BGfvvYv5GVlf0c8yiAL+1QmB2S15TlX3TNx2sLUBpy43AlxMREJsWZF085ufLVWbn7RGZfdOXvBitQGyRT3CB8TH2NHC582aTCLLIst//Hoq3+57fHcgiIoJyfGc2QkvPhmMRTxypufn37pHfmFJSziCzUSAIR2ZeWNvPD2dz+exKIg2yymkzZYl9GLr3/wiRffRwQmshgTbfW9wPo5XAbERONAsJEYHwPbdvV9C9m4GATPLyh57r+fDBlz00+btjk0w10RrjAWlSlxMS7UFC1vkxde97Po0QHHj2DCMgk58IzL7/xu1uLkpDhyiBzU5M1q+9j5zZYZmTmnXvy3BUvWoF9vVZUh74WvhpTyAUUTWA8/83ZScgJHBVReWl6RV1BcWFQi9tPTY4MGSbPm/nj3I69oZeHMpZ8Vb73v+aXL1zfQZ3vYSyeW4kwVFZWQchFGCbH4yvfzfmQhOLGJ+4PQkBD5V9wu+XwRZFGQBhuw1yvfBYXFaIN1Q0ODU1MT12/cdtVtj5OfYmMiO7Vv0b5NOhyCbCKzmkP3DwUxJxzDDrbMLyw+4/K7Zs5bxoaBaeg3pL3AwQ8J3pmZO/riO5YsX4+Hsr/uDx9AswjPqeGhZ94Od7lU0YEcEdObpL4+7o4v335s5JC+RSVlUAAnMSnu3U+m/LhyQ5B+UhbKCgoO/H7+ss+++T4pKR4E1mGrPvf0k756+9GXH78NT+KwySJkWNZ66Jl3mGXtfVoUY3P92/VjNy/86Jv3Ho+McCFOUFBwaVlF/16dp3/67HcfPT3146c/fe2hsWcNrZD/LBzg9VZxJCUDfT5xdt8eHZdM/u/Uj8Y1apCEB/tLbctBDZ73+vZxQmOvIfEjPVUzZGjWAOjH08TJ8CMBwXXGFJTkbhBzKq1AdjJS2cKla0ggkIfJX2IbQBF86ogRY29b89Pm+Di34jvb8C+BIVjgOn/xKgqQyEj5rHoUlJIU9/U7j1909rBTBvb67PWHRp3cr6S0DKsDZeUVH3wxFT0ZTeqr9z77DlloY4yi4rILzhz67vP3DB3Y64qxpzLXHRXBKCESHRW5YMnqlWs2QQS5/HXtA+vkAJqanMC3cc4VVSH7cZ1a9+rWjo3/1KHHv/Xs3bdefX5xiXCFCLjXF5NmQ4A6iJDViQF19lE2CkaKpcHf69sWNZy9hpCIKTYEGDNcjRRhRuSQSxQEl1EzGRPAMbIGzt7JWvLxKTkFMAp5nB3ZpOjft4UEnxRHjRcWFsqStA9gUToNps1ewiqQhX3C65pLzqB+oYTWgAu8//YrSH2S3GvJnK7ZC5bZm24QAOsuWLyK7Qp/xUWpmal6IIhPQLBbp9aXnT+yuKTc9EiQTZ+zhFFzY4cJP7BOiwk2FG59StSkWysfG1NdY+8s/Os15zVpmFJZKf/Dlw1iw6bt9DMdPm2K/6HIekjLi35cu2TFevKWfK9Yzy25x3AKi0v3Gl3445pNWzJsulFgXWQBNm/b9fm3s8b956OHxr395EsfvPPJ5B+WrYVJlIJ8OIhxbpQBKXAYQ4jWLdK+effx4Rfctn3DlgFD+o44qe/9/349KlJ2+L2AZViva8dWX5EkL/pb1paMEaMH9z6u/SPPvBMTE+VP3YAeprDwijUbcTBume6OjmIJGvKZAkqwY9vmndu3RLzoKAwXumV7JtVN08apUNi6Q56V2yfnkaJPOrFHs7QG0MH5xCa1taOG9Hvm1U8gjIAs9eOqjWAC4HA1NnxgPVxFYYLl3NoVh9BGQHCgsEoQt2zWaGdWTnh4GOjlnkqPxxsaLZ9Z4j/RwJa7/q6np37/Q7Q7EpPreGBZefnkj54+ZUAvEEgeI8fehmJ1u5V/vFdSVHz+OcM+eOk+PInVEYeFEP+uh1+ZOnsxhQX9olT9aLxwV2iHNs3vvPHiM0ecCKZQ92PAiU7wsHmHNs0mvPXIlZefxbZBwvFUEEmCsBcwX/Cra3p2a/f56//68xVjPvrPAxiDKKNKd5D8QR+LE0kZmbmkCzoqvdWNGyQRmtCBGBzUatHbsV1zwoUkgolxZ+ckU1eHOUkYiswxo6ZrB/l/lpJb4Vzlad2iCambwoR+PGbr9l2IyqIMCQOHDOKRurLUXDiQ6EHrMhrwKUsa4t4gDgQCSDhfREQ41ZZ+y7+ocDDQRojkz4iIMEMIocjWz7CFqNo4kKJk1EW3f/DZdyiZVMS27XZHUkgnxceQwDh2n33F3RSVkDIlGGVg9xqkNVTAzvHqM3dRXBQUlsCTP6oP6BR8eXNlbf/eXV55+g7iif2M098+8VURARSxRcWlrMJqHPU4AzBLSYnyeKWd1jBFUiS7kfzbllp4YCEgN7+wWj+gm7mgNW6QrC1hW3kPjIuNZtujysQV0DhrWQLX5Q8KjHOUgwZZi9UtVsgoq9dvRuEgkMM4vURGyN6/T+KkA2EmJrphamJ0ZAT4YBrUI8i+m5qUoM/6JanuMazS4YQvvvn5mrWbGjRIRBY2o3KPp0XTRu7oyOJS+a9+0Mc5Pvt2lvDgP9vMSa92Ciss4PFUsopm5914/uCPj3eATxvJxWj7UiCjXGCrtAw3FzXU1NUmxOvfvSpAB4pcEhJi5JamflI3NYhRwA+4VSy2hqDE+FjaWgpIHypxhYVRBGEAOoODA9k+Kzzyx1z7kWAfACGlQ80R7CJYpNgJWbdx67V3PqXPDsk7UnX37tZeMMXn9mlO0cwLj9y6Yvqbt197QVFJqS8oDZDi+J6dlk1747uPnrLybU+NiRKgsHjF+rDwcLwKBNLyp//915wvX5wz4YVhg/vg4vJbhfp3ie7FxO7oNIBvkhXM+zoNYS+wIQB2wafh9O7LnnDICCrAV2jAAnyEqrsIQwoSa/ox3Yw59/L3ZVLKAmInNbPh42raLbfSbZ32CElDFnxnrYM2J/iR4S527hv/Me6Gu56+8e5xZ1/xj5POvmn5qo2R+rYgaBIfF5491JbbJ2ljxp5CUBzgaCA6YwqMki3lGUhivHmzqMMf9I61eOUbCtQWndu3iIoMb9Io5YzhJ5Ab8OZEeXCh774QVnZT2MN3jhQox7quql41Xl2/jdMDGA46FePbvVpI5wu+9KtbMChoAqas+k7VMjqgLcGknXsq80AATXY7KskX3/j8pbe+IN19M3UeGYVNSyIzKDA/O++2a87v1K4FESbuvm/SwgOhg++CZrI4IwqMshCjlMfKHsrwR5B/KEInxQEVO3kIW+YXFA8868bnXvtkw+YdF541tGjDpGXTXl8/970n770eTCR1piocDXNaOLLdR0eFS5qilg4Myi8oMXlMLbS4tc3SPBRGqZOlpWdEznzi/Oq5eYXFoia+jEJAAPmHw4xoWYsXfDkiPMwhfShA3HMsZjrfYaGhZNfCotK8fJJ9+W03Xnz3LZeyukWVM2FPsBW5qjs5bR3ZDTa62+H2yGeIIwfcay8/s3l6o5w8+UzyqKiIzKy8m+957oTTrj3jsrv+8+5XHAsJUDh0xPdb4miY05ZkDyD/oA6YDg4JKmRjLK+gH5ZUKlEQpxF6xE7ydyBB1HIMAZQ55GHRoURF4K6sXJDNSwB6IIYXC47+Txx7l5AOKQcHARAhppjYvlV6mxZN27Rs2rZlU2Jx0PHdrvvTWdM/HvfEvddhAbMT4Ez7NTCzG5++BlBW7pEtOTBIklU9gAJ98gyFz4S3Hj2+V+f8wmL8nu08JTmeoP9u1g/X3P5EtyGXcxKFCIbX6NgNR8Wcmh7RL/UeWzgi4vi7MnN37MxR0SS9qMsHrNuwNTTUMUmMO6pp4xRVXGBaoxSOfVaUU+WvWb9Fpujvm0Wk2jqSZHauPANhObIcp1UIGr7x8KsAfllZxYC+XSg6Zn3xPHXHnK9enPPlC5PHP/Xsv26mgEcE0FjRn6awr7e+xt6g3SqFAK/KVN3GzTtyC4rIpf6zjLgUlQEB7Jew8dlrD5027HgKtOycfI5qcTFuzmPFZeW33PX0v8a9xWYkiduPgsy0e64MSWIX4G4PLk1rzqA+bqbfuRNw0ORFXvfAp8M026ltc/nTDv1PXgXFpTPn/YgAWqRJybNl+87lazbqkYCDaRUmbNQgiVmogBNqw+QE3JlbCpYflq/Lyslnij7EkZ2M4zZnE8QTgjU1XTq0FEY0cIWbPYF+u/qAW8KeBkbFJ6hsXa4wlEiZC+O6iviczTKlCyEDTRIsrPLSlNwCaEOQFV0AIiBwYZXxE6axO0qwywaymxmwkR3XRMCsnIIRQ/p++tpD87566fmHb+nRtS2lMvsyXMUlxj/73084l4cEBbOmrKcg5oSEXSHOSvrcTo6VRh2gEablLvU7CDTq8QUcfF9RquJR8Cs+VwHNkYGDT+iuOZMUIWXkC29+TpJEcYb2xIvjObyyLqrxVFb16d6BAVSALonUnt3ac5aESFhYCHvJuP98rJVCCEeUnVm5r7//NXlS1FVbh0MM6NtV1lMQKQ8MiuJfZ3FcFEIKEMBLTGTACBqmjtKSi8dbJfzYg1wdZBumDRWUytb+08btIHAKQNzpc5a8+8lkCgJWMW+QWfpHcxD/4cc1pNP+p13bedAl5/35XnrYR/9y2ZkzPn32irGnlsjRU05rHMbW/rRVU9+e5oQQV3Qhb53KyiMH4h3s/wghfOnBlh6+M3bloDu2aPBZOzN7N35+UQnmVXSRliGoZezKBT+vQEgh2MC+3dq1TieMmI7SN/y8/aw/3T1n0Yq1G7bceu/zb4z/JjZGNle8GptdcObJoAFKs26s3kJZ8nBMNJXevU+8xrlw+pylZ11+945duagJP2A/1mfo7TEHt8LNLwAiXNEIDbzH4lJKTJUUVrEKDQFF9gcmCjf6fDE8XH4VI64ZEb5wyeq5i1aiGV8ccxrB+8HEN9jKn3/js3k/rMzIzPnPO1+OvfYB2HLUK+WPHLK5ZT9iotdbzZaJ/jk8L12xfvX6zXQCRIK83cJPIvIcjDs3CiIJLEErN69w8Nk35heWMA08MhvJ2idARISLUCCNsEaX9i2nffLM1h2ZQ8bcrP+qh9mBXm8VZT34ulwdEhLP0MebiJXP33iY0pxoe+ujiZfd8FBKSgIJFo2VllegF/pJIzEc1AICSANZufnnjB780SsPaF5yGECM0Rf/fcr3PyQnxJKx0UJJSXlcrBsm4R99gYCFcvOKPnv9oTNGnAh9M5hIuSdU63sqnn/90w8+n4pcnCxZCEwcNCk+tl3rpiWlFY/cdXX/3p3pkayzJ8AMNsMPLr3pofc+/S4hzs0tO0ZtTV2r5k2mfTKOCg5qW7bv6j3iz7aPIEVlpX0QdSSOTlUIb2ZCRpkeGxPZsW2L9q3T/33f9YuWrhl41g1oA0dhFlkHBVJ2rFz78/zFq6khIM5clLZ4yn/TGiWL49YfV5wXAFVSbhHCODg2IIOzPKvyTQO6dDIEgoUXUtmt4ZNP0JEiC76nshKlGAIaBxmHh4mLzxl+xYWnZu/KgQJOw2E4XD/vjMpb5sq/BS2gpHz6gRswGIuYPWz6Mw/elNYwmQpCMINDOErTHxnhiomOVD+ty8nMvfnP52BLFgJnn7YEwOS6aUvGvDlLFi9bB5pJCieFxaWzFiyfPX8ZZyEf5j6BobFnnCxvwtb/YESygQjCMgRBrNgsreGIwX0L8gpJG3i8+ncIGiZq9ZFONbEIf8wFocLjnfjdvLk/rIRs146tBvbrlp2Vy+JIRxh8MWn2869/Nn/JakwLp+w/hbkF1NuUF75kYLA72eLjHK+Ki0o4afFdUFicm1/k++bW+j1FJRzCwMejEd46Hfy8Qj98pVNc6i0q4UQiS6mcLPby47f/7eZLEJhIIg8Xl5ahBY4ZMquoZOiAXt++90TjBskWbfDGLBr4YJuWaRM/+Hf/nlK+5+UXMoWJbLd5zCX/19U9cPfVT957HbZkCnAAYwASN94q9mP8w3gmVRYWlZBmqMT0lyH7BuMH4sMG93nk7qvhk8SYk1tYmF+EMPBpaDQY7dunS2ZWLmT1fb9l+P2u7Dx3VORrT9953hlD8nZkIkVOfiHaY/fCBEykFnnnuX+cP2YY2S6bqcVlBB+djKIu3D0sJPTBe/7yj5sv0ey1h9fuTrZE0usffGP1oTP4S5BfaFSnJif86YJRsPj6+G9RCvSc0V9CoNSo+OmFZw1lFd/CNFau3fT1d/NIIBgDj4qICG/drPHQgb1OGdQbBJwOlRmyWEVnWid0vpk2f/rsJT9v22V/G0SYsl+eOvT4dq3SzYR00vAttxegBWScOmvx/MWr5HfpfqWEgPJ87ujBrVukmWac/nowyr6FqADmLV6FOcnMKYnxY88eSrQpmuRYtPr2R5MIO9yFTpJQ7+Pajxk9CH/F9p9+8z0+ZJKyZTZplHzJOcN9i5I5qNjZO/F7Ei9x2SA1sUfnNiNP7odK9ynpr7jwkQBWxHN91volmDw+drn62vvUrw9sN9pLwiMBRl8E0V3A6a0H3+oH4NbfX/3B5kKW1m+QVO6tiytrON0HhkCpsg4en+XYmsB37hXgGGUwZEzvdWvgz6j/dMKLjVXFkWcq4h31tw7GnnP3AkgxCpG949IPYAOChul07Qk+foRxPzoYiSk2ag205JMLA/uzupcC6fNXlOAKA85fWNCWyXtK6msY7GFOp+8g4DfjH+TEvbj0wcGwur+5PjgYIoDhHJjaL0n5zzrwEntNNNhn5/7AVvGHQ5j8f3Dsw36z8//B/x4EBPw/7z5TL9NS+REAAAAASUVORK5CYII=;" parent="1" vertex="1">
          <mxGeometry x="139.41" y="250" width="91.18" height="90" as="geometry" />
        </mxCell>
      </root>
    </mxGraphModel>
  </diagram>
</mxfile>
